#!OML:ASF H:\ManfredETheater\Project 1\Capture day 1\Session 1\subject.ASF
:FULLY-SPECIFIED
:DEGREES
321
root -7.26366 8.41152 3.15885 -27.8244 72.7174 -24.5528
lowerback 65.7295 -0.20328 -6.97859
upperback 12.5229 -1.53063 3.20912
thorax -7.06079 -0.170972 7.12048
lowerneck 7.70767 -18.9307 -18.0133
upperneck -6.66363 -26.6212 23.0414
head 2.4136 -13.9145 8.49245
rclavicle -3.65764e-014 3.89618e-014
rhumerus -32.493 -6.4807 -69.7691
rradius 99.4611
rwrist -18.2899
rhand -27.8013 -7.18493
rfingers 7.12502
rthumb -1.19401 -37.1613
lclavicle -3.65764e-014 3.89618e-014
lhumerus -24.1736 12.4087 29.5999
lradius 112.644
lwrist 3.11587
lhand -20.318 -0.0299067
lfingers 7.12502
lthumb 6.0328 29.8642
rfemur -70.4229 -31.5203 -9.67091
rtibia 114.142
rfoot -24.2934 7.45859
rtoes -44.7161
lfemur -70.59 64.7402 23.0492
ltibia 134.054
lfoot -38.7382 -40.4171
ltoes -17.3142
322
root -7.2814 8.35182 3.25258 -28.9858 73.0253 -25.0997
lowerback 66.4986 -0.296658 -6.88435
upperback 12.3823 -1.57083 3.25024
thorax -7.20236 -0.168969 7.13855
lowerneck 7.59843 -18.9045 -18.1361
upperneck -6.79922 -26.5765 23.2919
head 2.43989 -13.8963 8.57396
rclavicle -1.59028e-015 3.97569e-015
rhumerus -32.262 -6.61944 -69.2866
rradius 99.7373
rwrist -18.0807
rhand -27.9931 -7.04959
rfingers 7.12502
rthumb -1.37925 -37.0249
lclavicle -1.59028e-015 3.97569e-015
lhumerus -24.2679 12.4541 29.8705
lradius 112.859
lwrist 3.14316
lhand -20.3563 -0.028069
lfingers 7.12502
lthumb 5.99581 29.8671
rfemur -70.534 -32.4038 -9.39188
rtibia 115.294
rfoot -24.4066 7.23669
rtoes -43.6952
lfemur -69.3275 64.2359 24.6743
ltibia 133.811
lfoot -39.297 -40.4829
ltoes -17.5765
323
root -7.2996 8.29099 3.34545 -29.8491 73.2949 -25.5484
lowerback 66.9615 -0.38008 -6.81956
upperback 12.3132 -1.61081 3.27532
thorax -7.26625 -0.173559 7.15316
lowerneck 7.49815 -18.8787 -18.2118
upperneck -6.95617 -26.5265 23.5394
head 2.45087 -13.8776 8.65342
rclavicle -3.18055e-015 2.14687e-014
rhumerus -31.9141 -6.75383 -68.8378
rradius 99.8965
rwrist -17.9321
rhand -28.1582 -6.92431
rfingers 7.12502
rthumb -1.53866 -36.8985
lclavicle -3.18055e-015 2.14687e-014
lhumerus -24.3771 12.4951 30.1049
lradius 113.062
lwrist 3.13996
lhand -20.2585 -0.0751821
lfingers 7.12502
lthumb 6.09028 29.8173
rfemur -70.8885 -33.285 -9.03712
rtibia 116.442
rfoot -24.4457 7.06735
rtoes -42.361
lfemur -68.6241 63.9394 25.8166
ltibia 133.627
lfoot -39.729 -40.4011
ltoes -17.8789
324
root -7.31804 8.23131 3.43758 -30.1769 73.522 -25.6537
lowerback 67.126 -0.408076 -6.83867
upperback 12.3072 -1.64267 3.27382
thorax -7.26244 -0.181067 7.17096
lowerneck 7.40738 -18.8568 -18.2386
upperneck -7.11677 -26.4776 23.784
head 2.45275 -13.8615 8.72861
rclavicle -4.29375e-014 1.57437e-013
rhumerus -31.4723 -6.8932 -68.4285
rradius 99.9411
rwrist -17.8454
rhand -28.3157 -6.82033
rfingers 7.12502
rthumb -1.69083 -36.7934
lclavicle -4.29375e-014 1.57437e-013
lhumerus -24.4854 12.5213 30.3001
lradius 113.253
lwrist 3.10568
lhand -20.0612 -0.157744
lfingers 7.12502
lthumb 6.28073 29.7291
rfemur -71.4403 -34.0701 -8.70412
rtibia 117.537
rfoot -24.646 6.87624
rtoes -41.2438
lfemur -68.3314 63.8868 26.5216
ltibia 133.494
lfoot -40.0572 -40.1844
ltoes -18.1783
325
root -7.33709 8.17369 3.52815 -29.8492 73.756 -25.2764
lowerback 67.0411 -0.393732 -6.94793
upperback 12.3436 -1.68888 3.23417
thorax -7.21123 -0.198505 7.19054
lowerneck 7.31533 -18.8431 -18.218
upperneck -7.25877 -26.437 24.018
head 2.45393 -13.8503 8.79372
rclavicle 5.08889e-014 -2.06736e-014
rhumerus -30.9673 -7.04609 -68.0621
rradius 99.8827
rwrist -17.8116
rhand -28.4735 -6.7687
rfingers 7.12502
rthumb -1.84322 -36.7405
lclavicle 5.08889e-014 -2.06736e-014
lhumerus -24.5661 12.5245 30.4695
lradius 113.413
lwrist 3.0445
lhand -19.8126 -0.265763
lfingers 7.12502
lthumb 6.52069 29.6139
rfemur -72.1169 -34.7908 -8.47714
rtibia 118.548
rfoot -25.0531 6.60519
rtoes -40.5462
lfemur -68.4458 63.9868 26.7101
ltibia 133.406
lfoot -40.2893 -39.7623
ltoes -18.5369
326
root -7.35736 8.12107 3.61787 -28.8299 74.0119 -24.3081
lowerback 66.8308 -0.311808 -7.17404
upperback 12.3912 -1.74139 3.16096
thorax -7.1428 -0.220395 7.22406
lowerneck 7.22202 -18.8387 -18.162
upperneck -7.37514 -26.4082 24.2477
head 2.45984 -13.8455 8.8506
rclavicle 5.725e-014 -7.23576e-014
rhumerus -30.4322 -7.21491 -67.7315
rradius 99.7308
rwrist -17.8233
rhand -28.6495 -6.76915
rfingers 7.12502
rthumb -2.01323 -36.7394
lclavicle 5.725e-014 -7.23576e-014
lhumerus -24.5908 12.4956 30.6245
lradius 113.518
lwrist 2.96458
lhand -19.5598 -0.39866
lfingers 7.12502
lthumb 6.76475 29.4733
rfemur -72.8544 -35.4295 -8.40309
rtibia 119.475
rfoot -25.6079 6.29085
rtoes -40.202
lfemur -68.7775 64.1614 26.4776
ltibia 133.326
lfoot -40.4601 -39.1724
ltoes -18.9176
